<svg xmlns="http://www.w3.org/2000/svg" viewBox="0 0 1187.75 220.39"><defs><style>.cls-1{fill:#0092ff;}.cls-2{fill:#005ece;}</style></defs><g id="Layer_2" data-name="Layer 2"><g id="Layer_1-2" data-name="Layer 1"><path d="M242.36,44.18h26l22.9,63.32c2.85,8.24,5.47,17,8.32,25.44h.79c2.86-8.48,5.31-17.2,8.17-25.44L331,44.18h26V173.76H335.88V114.48c0-12,1.82-29.21,2.93-41.22H338l-10.46,30.12-21.32,58.21H292.61l-21.4-58.21-10.3-30.12h-.8c1.11,12,2.94,29.25,2.94,41.22v59.28H242.36Z"/><path d="M371.66,125.18c0-31.63,21.95-51.12,44.86-51.12,26.31,0,40.18,19,40.18,46.2a59.65,59.65,0,0,1-1,11.1H393.93c1.9,17.27,13,27.1,28.69,27.1,8.32,0,15.45-2.61,22.59-7.05L453,165.6a60.39,60.39,0,0,1-33.36,10.54C392.74,176.14,371.66,157.27,371.66,125.18Zm65.3-9.36c0-15-6.65-24.09-20-24.09-11.33,0-21.32,8.48-23.3,24.09Z"/><path d="M468.62,76.43h18.71l1.74,17.36h.63c6.94-12.68,17.24-19.73,27.66-19.73,5,0,8.09.63,11,2l-4,19.81a33,33,0,0,0-10-1.58c-7.77,0-17.12,5.31-23,20.13v59.36H468.62Z"/><path d="M524.22,125.18c0-32.42,22.9-51.12,48.82-51.12A41.62,41.62,0,0,1,601.49,85l-11.1,14.82c-5.15-4.51-10.06-7.13-16.16-7.13-15.7,0-26.55,13-26.55,32.5s10.7,32.33,25.83,32.33c7.61,0,14.59-3.72,20.13-8.4l9.28,15.06a48.09,48.09,0,0,1-31.78,12C544.58,176.14,524.22,157.43,524.22,125.18Z"/><path d="M612.26,33.8h22.83V70l-1,18.78c8.16-7.69,17.83-14.74,31.14-14.74,20.85,0,30,14.1,30,38.67v61H672.42V115.67c0-16-4.6-22-15.14-22-8.56,0-14.19,4.2-22.19,12.13v68H612.26Z"/><path d="M707.68,147.6c0-20.84,17.28-31.7,57.23-36-.32-10.46-4.52-19.18-17.68-19.18-9.67,0-18.78,4.36-27.34,9.59l-8.4-15.21c10.7-6.74,24.49-12.76,39.94-12.76,24.33,0,36.3,15,36.3,42.08v57.62H769L767.28,163h-.63c-8.72,7.45-18.7,13.16-30.2,13.16C719.41,176.14,707.68,164.57,707.68,147.6Zm57.23.08V125.81c-26.4,3.33-35.19,10.22-35.19,20.05,0,8.6,5.86,12.36,14,12.36C751.67,158.22,757.69,154.34,764.91,147.68Z"/><path d="M805.24,76.43H824l1.74,13.16h.63C835,81.11,845,74.06,858.26,74.06c20.85,0,30,14.1,30,38.67v61H865.4V115.67c0-16-4.6-22-15.14-22-8.56,0-14.19,4.2-22.19,12.13v68H805.24Z"/><path d="M909.7,141V94.58H895.83V77.46l15.06-1,2.69-26.55h18.94V76.43h24.81V94.58H932.52v46.33c0,11.45,4.44,17.08,13.79,17.08a30.59,30.59,0,0,0,10.15-2.22l3.88,16.8a63.25,63.25,0,0,1-19.89,3.57C918,176.14,909.7,162,909.7,141Z"/><path class="cls-1" d="M967.91,148.71V33.8h22.82V149.9c0,5.63,2.54,7.61,4.91,7.61a13.56,13.56,0,0,0,3.57-.39l2.85,17a32.11,32.11,0,0,1-12,2C973.85,176.14,967.91,165.67,967.91,148.71Z"/><path class="cls-1" d="M1009.08,46.48c0-7.69,6-12.92,14.1-12.92s14.11,5.23,14.11,12.92c0,7.53-6,12.92-14.11,12.92S1009.08,54,1009.08,46.48Zm2.61,30h22.83v97.33h-22.83Z"/><path class="cls-1" d="M1044.5,77.46l14.27-1h40.65V94.58H1044.5Zm13.08-11.09c0-20.17,9.27-34.95,32.25-34.95a49.37,49.37,0,0,1,17.84,3.41l-4.36,17a27.16,27.16,0,0,0-10.54-2.3c-8.09,0-12.37,5.11-12.37,16.4V173.76h-22.82Z"/><path class="cls-1" d="M1100.33,211.72l4.2-17.67a27.19,27.19,0,0,0,7,1.34c10.22,0,16.16-7,19.41-16.72l1.83-6.1-38.28-96.14h23.14l16.8,47.72c2.93,8.63,5.71,18.22,8.56,27.5h.79c2.46-9,4.92-18.63,7.45-27.5l14.51-47.72h22L1152.56,178.2c-8.08,21.91-18.31,35.5-39.55,35.5A38,38,0,0,1,1100.33,211.72Z"/><circle class="cls-1" cx="110.52" cy="43.04" r="43.04"/><circle class="cls-1" cx="177.33" cy="111.28" r="43.04"/><circle class="cls-2" cx="109.86" cy="177.34" r="43.04"/><circle class="cls-2" cx="43.04" cy="109.11" r="43.04"/><path d="M572,189h6.54c4.2,0,7.19,1.58,7.19,5.58,0,5.74-4.29,8.11-9.84,8.11h-3l-1.61,8.19h-3.62Zm4.19,10.81c3.87,0,6-1.62,6-4.72,0-2.25-1.54-3.21-4.3-3.21H575l-1.55,7.93Z"/><path d="M589.31,204.62c0-6.27,4.54-10.54,9.05-10.54,3.69,0,6.13,2.59,6.13,6.69,0,6.28-4.54,10.55-9,10.55C591.75,211.32,589.31,208.72,589.31,204.62Zm11.55-3.73c0-2.48-1-3.9-2.89-3.9-2.61,0-5,3.31-5,7.51,0,2.48,1,3.9,2.89,3.9C598.44,208.4,600.86,205.09,600.86,200.89Z"/><path d="M611,194.48h3.54l.28,8.79c0,1.57,0,3.14,0,4.73h.13c.63-1.59,1.21-3.18,1.9-4.73l3.84-8.79h3.26l.42,8.79c0,1.57,0,3.14.07,4.73h.14c.62-1.59,1.15-3.16,1.8-4.73l3.67-8.79h3.35l-7.23,16.43h-4.3l-.29-7.91c0-1.54,0-3.16,0-4.83h-.13c-.65,1.67-1.23,3.29-1.86,4.83l-3.38,7.91H612Z"/><path d="M646.22,194.08c3.81,0,5.23,2.66,5.23,6.06a10,10,0,0,1-.72,3.48h-10c-.35,3.47,1.57,4.94,4.07,4.94a6.23,6.23,0,0,0,3.35-1.29l1.31,2.31a9.78,9.78,0,0,1-5.61,1.74c-3.92,0-6.58-2.56-6.58-7C637.27,198.22,641.9,194.08,646.22,194.08Zm2.09,7.26a6.89,6.89,0,0,0,.16-1.44c0-1.59-.68-3-2.68-3s-3.95,1.66-4.74,4.47Z"/><path d="M659.83,194.48h2.93l-.29,3.17h.13c1.3-2,3.11-3.57,5.06-3.57a3.74,3.74,0,0,1,1.65.3l-1.21,3.15a3.23,3.23,0,0,0-1.52-.27c-1.54,0-3.12,1.22-4.47,3.72l-1.94,9.93h-3.59Z"/><path d="M675.36,194.48H679l-3.29,16.43h-3.59Zm.61-4.78a2.38,2.38,0,0,1,2.41-2.34,1.93,1.93,0,0,1,2.06,1.88,2.34,2.34,0,0,1-2.41,2.32A1.89,1.89,0,0,1,676,189.7Z"/><path d="M687.07,194.48H690l-.16,2.33H690c1.73-1.5,3.58-2.73,5.64-2.73,2.74,0,3.89,1.52,3.89,4.16a10.67,10.67,0,0,1-.26,2.3l-2.08,10.37h-3.59l2-9.91a8.74,8.74,0,0,0,.27-1.74,1.84,1.84,0,0,0-2.05-2.11c-1.15,0-2.44.79-4.18,2.55l-2.21,11.21h-3.58Z"/><path d="M704.21,215.93l1.6-2.42a7.08,7.08,0,0,0,4.42,1.83c2.48,0,4-1.54,4.7-4.14l.84-3.2a7.66,7.66,0,0,1-5.37,2.57c-2.78,0-4.78-1.93-4.78-5.77,0-6,4.17-10.72,8.62-10.72a4.18,4.18,0,0,1,3.74,2.31h.09l.69-1.91h2.93l-3.35,16.68c-.94,4.61-3.84,7.06-8.22,7.06A9.57,9.57,0,0,1,704.21,215.93ZM716,205.12l1.22-6.09a3.17,3.17,0,0,0-2.73-2c-2.69,0-5.13,3.38-5.13,7.29,0,2.22.93,3.29,2.39,3.29A5.54,5.54,0,0,0,716,205.12Z"/><path d="M737.86,207.3a12.51,12.51,0,0,1,.21-1.94l1.68-8.05h-2.3l.53-2.66,2.49-.17,1.31-4.42h3l-.85,4.42h3.93l-.56,2.83h-4l-1.68,8.2a7.52,7.52,0,0,0-.09,1.15c0,1.22.53,1.82,1.9,1.82A3.49,3.49,0,0,0,745,208l.7,2.54a9,9,0,0,1-3.49.74C739.07,211.32,737.86,209.59,737.86,207.3Z"/><path d="M756.08,187.28h3.58l-1.43,7-.64,2.38h.13c1.66-1.44,3.43-2.55,5.41-2.55,2.74,0,3.9,1.52,3.9,4.16a9.58,9.58,0,0,1-.27,2.3l-2.08,10.37H761.1l2-9.91a8.74,8.74,0,0,0,.27-1.74,1.84,1.84,0,0,0-2.05-2.11c-1.15,0-2.44.79-4.18,2.55l-2.2,11.21h-3.59Z"/><path d="M781.83,194.08c3.82,0,5.24,2.66,5.24,6.06a10,10,0,0,1-.72,3.48h-10c-.35,3.47,1.56,4.94,4.07,4.94a6.17,6.17,0,0,0,3.34-1.29l1.31,2.31a9.75,9.75,0,0,1-5.6,1.74c-3.93,0-6.59-2.56-6.59-7C772.88,198.22,777.51,194.08,781.83,194.08Zm2.09,7.26a6.28,6.28,0,0,0,.16-1.44c0-1.59-.68-3-2.67-3s-3.95,1.66-4.74,4.47Z"/><path d="M806.75,189h12.53l-.61,3h-8.95l-1.27,6.46H816l-.6,3h-7.57L806,210.91h-3.62Z"/><path d="M834.41,210.91h-2.93l.16-2.35h-.13c-1.65,1.5-3.53,2.76-5.52,2.76-2.74,0-3.89-1.53-3.89-4.17a10.71,10.71,0,0,1,.27-2.3l2.07-10.37H828l-2,9.92a8.42,8.42,0,0,0-.26,1.74,1.83,1.83,0,0,0,2.05,2.1c1.11,0,2.39-.79,4-2.55l2.21-11.21h3.59Z"/><path d="M844,207.3a12.51,12.51,0,0,1,.21-1.94l1.68-8.05h-2.3l.53-2.66,2.49-.17,1.31-4.42h3l-.85,4.42H854l-.56,2.83h-4l-1.67,8.2a6.44,6.44,0,0,0-.09,1.15c0,1.22.53,1.82,1.9,1.82a3.49,3.49,0,0,0,1.52-.44l.7,2.54a9,9,0,0,1-3.49.74C845.23,211.32,844,209.59,844,207.3Z"/><path d="M870.32,210.91h-2.93l.16-2.35h-.14c-1.64,1.5-3.53,2.76-5.51,2.76-2.75,0-3.9-1.53-3.9-4.17a10.71,10.71,0,0,1,.27-2.3l2.08-10.37h3.58l-2,9.92a8.54,8.54,0,0,0-.27,1.74,1.83,1.83,0,0,0,2.05,2.1c1.11,0,2.39-.79,4-2.55L870,194.48h3.59Z"/><path d="M881.74,194.48h2.93l-.29,3.17h.13c1.3-2,3.11-3.57,5.06-3.57a3.74,3.74,0,0,1,1.65.3L890,197.53a3.26,3.26,0,0,0-1.52-.27c-1.54,0-3.12,1.22-4.47,3.72l-1.95,9.93h-3.58Z"/><path d="M903,194.08c3.82,0,5.23,2.66,5.23,6.06a10,10,0,0,1-.72,3.48h-10c-.35,3.47,1.57,4.94,4.07,4.94a6.23,6.23,0,0,0,3.35-1.29l1.31,2.31a9.78,9.78,0,0,1-5.61,1.74c-3.92,0-6.58-2.56-6.58-7C894,198.22,898.64,194.08,903,194.08Zm2.09,7.26a6.89,6.89,0,0,0,.16-1.44c0-1.59-.68-3-2.68-3s-3.95,1.66-4.74,4.47Z"/><path d="M923.58,204.62c0-6.27,4.54-10.54,9-10.54,3.69,0,6.13,2.59,6.13,6.69,0,6.28-4.54,10.55-9,10.55C926,211.32,923.58,208.72,923.58,204.62Zm11.55-3.73c0-2.48-1-3.9-2.89-3.9-2.61,0-5,3.31-5,7.51,0,2.48,1,3.9,2.9,3.9C932.71,208.4,935.13,205.09,935.13,200.89Z"/><path d="M945.8,194.65l2.18-.17.36-1.89c.67-3.35,2.52-5.71,5.79-5.71a6.46,6.46,0,0,1,3.23.85l-1.19,2.54a3.42,3.42,0,0,0-1.7-.52c-1.35,0-2.18.86-2.54,2.72l-.41,2h3.1l-.57,2.83h-3.13l-2.69,13.6h-3.59l2.73-13.6h-2.11Z"/><path d="M967,207.33l2.61-2a6.37,6.37,0,0,0,5.25,2.93c2.26,0,3.91-1.28,3.91-3.32,0-1.38-1-2.18-2.64-3.14l-2.3-1.4c-1.93-1.19-3.32-2.75-3.32-5.31,0-3.53,3.14-6.44,7.26-6.44a8.25,8.25,0,0,1,6.41,3.2L981.9,194a5.75,5.75,0,0,0-4.31-2.21,3.09,3.09,0,0,0-3.37,2.94c0,1.4,1.13,2.12,2.79,3.13l2.35,1.42c2.1,1.24,3.16,2.68,3.16,5.17,0,3.94-3.2,6.91-7.93,6.91A8.94,8.94,0,0,1,967,207.33Z"/><path d="M997.49,194.08c3.81,0,5.23,2.66,5.23,6.06a10,10,0,0,1-.72,3.48H992c-.35,3.47,1.56,4.94,4.07,4.94a6.17,6.17,0,0,0,3.34-1.29l1.31,2.31a9.75,9.75,0,0,1-5.6,1.74c-3.93,0-6.59-2.56-6.59-7C988.53,198.22,993.16,194.08,997.49,194.08Zm2.08,7.26a6.28,6.28,0,0,0,.16-1.44c0-1.59-.68-3-2.67-3s-3.95,1.66-4.74,4.47Z"/><path d="M1008.45,208.63a8.05,8.05,0,0,1,.21-1.72l3.92-19.63h3.59l-4,19.78a2.67,2.67,0,0,0-.07.65c0,.49.26.69.59.69a1.47,1.47,0,0,0,.58-.1l-.07,2.69a5.8,5.8,0,0,1-2,.33A2.43,2.43,0,0,1,1008.45,208.63Z"/><path d="M1020.56,208.63a8.75,8.75,0,0,1,.21-1.72l3.93-19.63h3.58l-4,19.78a2.67,2.67,0,0,0-.07.65c0,.49.26.69.59.69a1.45,1.45,0,0,0,.58-.1l-.07,2.69a5.75,5.75,0,0,1-2,.33A2.43,2.43,0,0,1,1020.56,208.63Z"/><path d="M1035.36,194.48H1039l-3.29,16.43h-3.59Zm.6-4.78a2.38,2.38,0,0,1,2.41-2.34,1.93,1.93,0,0,1,2.07,1.88,2.34,2.34,0,0,1-2.41,2.32A1.9,1.9,0,0,1,1036,189.7Z"/><path d="M1047.07,194.48H1050l-.16,2.33h.13c1.73-1.5,3.57-2.73,5.64-2.73,2.74,0,3.89,1.52,3.89,4.16a10.71,10.71,0,0,1-.27,2.3l-2.07,10.37h-3.59l2-9.91a8.61,8.61,0,0,0,.26-1.74c0-1.4-.67-2.11-2-2.11-1.16,0-2.44.79-4.18,2.55l-2.21,11.21h-3.59Z"/><path d="M1064.2,215.93l1.61-2.42a7.08,7.08,0,0,0,4.42,1.83c2.47,0,4-1.54,4.7-4.14l.84-3.2a7.66,7.66,0,0,1-5.37,2.57c-2.78,0-4.78-1.93-4.78-5.77,0-6,4.17-10.72,8.62-10.72a4.18,4.18,0,0,1,3.74,2.31h.09l.68-1.91h2.94l-3.35,16.68c-.94,4.61-3.84,7.06-8.22,7.06A9.59,9.59,0,0,1,1064.2,215.93ZM1076,205.12l1.22-6.09a3.18,3.18,0,0,0-2.73-2c-2.69,0-5.13,3.38-5.13,7.29,0,2.22.92,3.29,2.38,3.29A5.54,5.54,0,0,0,1076,205.12Z"/><path d="M1086.57,209.23a2.89,2.89,0,0,1,2.77-2.87,1.94,1.94,0,0,1,2,2.12,2.82,2.82,0,0,1-2.74,2.84A1.94,1.94,0,0,1,1086.57,209.23Z"/></g></g></svg>