<svg xmlns="http://www.w3.org/2000/svg" viewBox="0 0 945.39 183.44"><defs><style>.cls-1{fill:#fff;}.cls-2{fill:#0092ff;}</style></defs><g id="Layer_2" data-name="Layer 2"><g id="Layer_1-2" data-name="Layer 1"><path class="cls-1" d="M16.48,34.87h26l22.9,63.32c2.86,8.25,5.47,17,8.33,25.44h.79c2.85-8.48,5.31-17.19,8.16-25.44l22.43-63.32h26V164.45H110V105.17c0-12,1.83-29.21,2.94-41.21h-.8L101.68,94.07,80.36,152.28H66.73L45.33,94.07,35,64h-.79c1.11,12,2.93,29.24,2.93,41.21v59.28H16.48Z" transform="translate(-16.48 -22.11)"/><path class="cls-1" d="M145.78,115.87c0-31.63,22-51.12,44.86-51.12,26.31,0,40.18,19,40.18,46.2a58.8,58.8,0,0,1-1,11.1H168.05c1.91,17.28,13,27.1,28.69,27.1,8.33,0,15.46-2.61,22.59-7.05l7.77,14.19a60.4,60.4,0,0,1-33.37,10.54C166.87,166.83,145.78,148,145.78,115.87Zm65.31-9.36c0-15-6.66-24.09-20-24.09-11.34,0-21.32,8.48-23.3,24.09Z" transform="translate(-16.48 -22.11)"/><path class="cls-1" d="M242.75,67.12h18.7l1.75,17.36h.63c6.93-12.68,17.24-19.73,27.66-19.73,4.95,0,8.08.63,11,2l-4,19.81a33,33,0,0,0-10-1.58c-7.77,0-17.12,5.31-23,20.13v59.36H242.75Z" transform="translate(-16.48 -22.11)"/><path class="cls-1" d="M298.34,115.87c0-32.42,22.91-51.12,48.82-51.12a41.6,41.6,0,0,1,28.45,10.93L364.52,90.51c-5.15-4.52-10.07-7.14-16.17-7.14-15.69,0-26.55,13-26.55,32.5s10.7,32.33,25.84,32.33c7.61,0,14.58-3.72,20.13-8.4L377,154.86a48.05,48.05,0,0,1-31.78,12C318.71,166.83,298.34,148.12,298.34,115.87Z" transform="translate(-16.48 -22.11)"/><path class="cls-1" d="M386.39,24.49h22.82V60.71l-.95,18.78c8.17-7.69,17.84-14.74,31.15-14.74,20.84,0,30,14.1,30,38.67v61H446.54V106.36c0-16-4.59-22-15.14-22-8.55,0-14.18,4.2-22.19,12.13v68H386.39Z" transform="translate(-16.48 -22.11)"/><path class="cls-1" d="M481.81,138.29c0-20.84,17.28-31.7,57.22-36-.32-10.46-4.52-19.18-17.67-19.18-9.67,0-18.79,4.36-27.35,9.59l-8.4-15.21c10.7-6.74,24.49-12.76,39.95-12.76,24.33,0,36.29,15,36.29,42.08v57.62h-18.7l-1.74-10.78h-.64c-8.71,7.45-18.7,13.16-30.19,13.16C493.54,166.83,481.81,155.26,481.81,138.29Zm57.22.09V116.5c-26.39,3.33-35.19,10.22-35.19,20.05,0,8.6,5.87,12.37,14,12.37C525.79,148.92,531.82,145,539,138.38Z" transform="translate(-16.48 -22.11)"/><path class="cls-1" d="M579.37,67.12h18.7l1.74,13.16h.64c8.72-8.48,18.62-15.53,31.94-15.53,20.84,0,30,14.1,30,38.67v61H639.52V106.36c0-16-4.6-22-15.14-22-8.56,0-14.18,4.2-22.19,12.13v68H579.37Z" transform="translate(-16.48 -22.11)"/><path class="cls-1" d="M683.82,131.64V85.27H670V68.16l15.06-1,2.69-26.54h18.95V67.12h24.8V85.27h-24.8V131.6c0,11.45,4.43,17.08,13.79,17.08a30.47,30.47,0,0,0,10.14-2.22l3.88,16.8a63.19,63.19,0,0,1-19.89,3.57C692.14,166.83,683.82,152.64,683.82,131.64Z" transform="translate(-16.48 -22.11)"/><path class="cls-2" d="M742,139.4V24.49h22.83v116.1c0,5.63,2.53,7.61,4.91,7.61a13.6,13.6,0,0,0,3.57-.39l2.85,17a32,32,0,0,1-12.05,2C748,166.83,742,156.37,742,139.4Z" transform="translate(-16.48 -22.11)"/><path class="cls-2" d="M783.2,37.17c0-7.69,6-12.92,14.11-12.92s14.11,5.23,14.11,12.92c0,7.53-6,12.92-14.11,12.92S783.2,44.7,783.2,37.17Zm2.62,30h22.82v97.33H785.82Z" transform="translate(-16.48 -22.11)"/><path class="cls-2" d="M818.63,68.16l14.26-1h40.66V85.27H818.63Zm13.07-11.1c0-20.17,9.28-34.95,32.26-34.95a49.36,49.36,0,0,1,17.83,3.41l-4.36,17a27.12,27.12,0,0,0-10.54-2.3c-8.08,0-12.36,5.11-12.36,16.4V164.45H831.7Z" transform="translate(-16.48 -22.11)"/><path class="cls-2" d="M874.46,202.41l4.2-17.67a27,27,0,0,0,7,1.34c10.22,0,16.17-7,19.42-16.72l1.82-6.1L868.59,67.12h23.14l16.81,47.72c2.93,8.63,5.7,18.22,8.56,27.5h.79c2.46-9,4.91-18.63,7.45-27.5l14.5-47.72h22L926.69,168.89c-8.09,21.91-18.31,35.5-39.55,35.5A37.94,37.94,0,0,1,874.46,202.41Z" transform="translate(-16.48 -22.11)"/><path class="cls-1" d="M346.59,176.38h6.54c4.19,0,7.18,1.58,7.18,5.58,0,5.74-4.28,8.1-9.83,8.1h-3l-1.62,8.19h-3.61Zm4.19,10.81c3.87,0,6-1.62,6-4.72,0-2.25-1.53-3.21-4.29-3.21H349.6l-1.55,7.93Z" transform="translate(-16.48 -22.11)"/><path class="cls-1" d="M363.93,192c0-6.27,4.53-10.54,9-10.54,3.69,0,6.12,2.6,6.12,6.69,0,6.27-4.53,10.54-9,10.54C366.36,198.65,363.93,196.05,363.93,192Zm11.54-3.73c0-2.47-1-3.89-2.89-3.89-2.61,0-5,3.3-5,7.5,0,2.48,1,3.89,2.89,3.89C373.05,195.73,375.47,192.43,375.47,188.23Z" transform="translate(-16.48 -22.11)"/><path class="cls-1" d="M385.62,181.83h3.55l.27,8.78c0,1.57,0,3.14,0,4.72h.13c.63-1.58,1.21-3.17,1.9-4.72l3.84-8.78h3.26l.42,8.78c.05,1.57,0,3.14.07,4.72h.13c.63-1.58,1.15-3.15,1.81-4.72l3.66-8.78H408l-7.22,16.42h-4.29l-.3-7.91c0-1.53,0-3.15,0-4.82H396c-.64,1.67-1.22,3.29-1.85,4.82l-3.37,7.91h-4.18Z" transform="translate(-16.48 -22.11)"/><path class="cls-1" d="M420.79,181.42c3.81,0,5.23,2.67,5.23,6.06a9.93,9.93,0,0,1-.73,3.48h-10c-.34,3.46,1.57,4.93,4.07,4.93a6.16,6.16,0,0,0,3.34-1.28l1.31,2.3a9.68,9.68,0,0,1-5.6,1.74c-3.92,0-6.58-2.56-6.58-7C411.84,185.57,416.47,181.42,420.79,181.42Zm2.08,7.27a6.37,6.37,0,0,0,.16-1.45c0-1.59-.68-3-2.67-3s-3.95,1.66-4.74,4.47Z" transform="translate(-16.48 -22.11)"/><path class="cls-1" d="M434.38,181.83h2.93L437,185h.13c1.3-2,3.11-3.58,5.06-3.58a3.65,3.65,0,0,1,1.64.31l-1.2,3.15a3.28,3.28,0,0,0-1.53-.27c-1.53,0-3.11,1.22-4.46,3.72l-1.94,9.92h-3.58Z" transform="translate(-16.48 -22.11)"/><path class="cls-1" d="M449.9,181.83h3.59l-3.29,16.42h-3.59Zm.6-4.78a2.39,2.39,0,0,1,2.41-2.34A1.92,1.92,0,0,1,455,176.6a2.33,2.33,0,0,1-2.41,2.31A1.9,1.9,0,0,1,450.5,177.05Z" transform="translate(-16.48 -22.11)"/><path class="cls-1" d="M461.6,181.83h2.92l-.16,2.32h.14c1.72-1.49,3.57-2.73,5.63-2.73,2.74,0,3.89,1.53,3.89,4.16a10.57,10.57,0,0,1-.27,2.3l-2.07,10.37H468.1l2-9.91a8.54,8.54,0,0,0,.27-1.74,1.83,1.83,0,0,0-2.05-2.1c-1.15,0-2.43.79-4.17,2.54l-2.21,11.21h-3.58Z" transform="translate(-16.48 -22.11)"/><path class="cls-1" d="M478.72,203.26l1.6-2.42a7.08,7.08,0,0,0,4.42,1.83c2.47,0,4-1.54,4.69-4.14l.84-3.2a7.61,7.61,0,0,1-5.36,2.57c-2.78,0-4.77-1.93-4.77-5.76,0-5.95,4.16-10.72,8.61-10.72a4.17,4.17,0,0,1,3.73,2.32h.09l.69-1.91h2.92l-3.34,16.66c-.94,4.61-3.84,7.06-8.21,7.06A9.57,9.57,0,0,1,478.72,203.26Zm11.75-10.8,1.22-6.09a3.17,3.17,0,0,0-2.73-2c-2.69,0-5.12,3.37-5.12,7.28,0,2.22.92,3.29,2.38,3.29A5.52,5.52,0,0,0,490.47,192.46Z" transform="translate(-16.48 -22.11)"/><path class="cls-1" d="M512.34,194.64a11.3,11.3,0,0,1,.22-1.94l1.67-8h-2.3l.53-2.66,2.49-.17,1.31-4.42h3l-.86,4.42h3.94l-.57,2.83h-4l-1.67,8.19A6.44,6.44,0,0,0,516,194c0,1.21.53,1.81,1.89,1.81a3.37,3.37,0,0,0,1.53-.44l.7,2.54a8.92,8.92,0,0,1-3.5.74C513.55,198.65,512.34,196.92,512.34,194.64Z" transform="translate(-16.48 -22.11)"/><path class="cls-1" d="M530.54,174.63h3.59l-1.44,7-.64,2.38h.14c1.66-1.44,3.42-2.56,5.4-2.56,2.74,0,3.89,1.53,3.89,4.16a9.47,9.47,0,0,1-.27,2.3l-2.07,10.37h-3.58l2-9.91a8.54,8.54,0,0,0,.27-1.74,1.83,1.83,0,0,0-2.05-2.1c-1.15,0-2.43.79-4.17,2.54l-2.21,11.21h-3.58Z" transform="translate(-16.48 -22.11)"/><path class="cls-1" d="M556.28,181.42c3.81,0,5.22,2.67,5.22,6.06a10,10,0,0,1-.72,3.48h-10c-.35,3.46,1.57,4.93,4.07,4.93a6.16,6.16,0,0,0,3.34-1.28l1.31,2.3a9.68,9.68,0,0,1-5.6,1.74c-3.92,0-6.58-2.56-6.58-7C547.33,185.57,552,181.42,556.28,181.42Zm2.08,7.27a6.37,6.37,0,0,0,.16-1.45c0-1.59-.68-3-2.67-3s-4,1.66-4.74,4.47Z" transform="translate(-16.48 -22.11)"/><path class="cls-1" d="M581.17,176.38h12.51l-.6,3h-8.94l-1.27,6.46h7.58l-.6,3h-7.56l-1.89,9.34h-3.61Z" transform="translate(-16.48 -22.11)"/><path class="cls-1" d="M608.81,198.25h-2.93l.16-2.36h-.13c-1.65,1.5-3.53,2.76-5.51,2.76-2.74,0-3.89-1.53-3.89-4.16a10.67,10.67,0,0,1,.26-2.3l2.08-10.36h3.58l-2,9.91a8.56,8.56,0,0,0-.27,1.73,1.83,1.83,0,0,0,2.05,2.1c1.11,0,2.39-.79,4-2.54l2.2-11.2h3.59Z" transform="translate(-16.48 -22.11)"/><path class="cls-1" d="M618.41,194.64a11.3,11.3,0,0,1,.22-1.94l1.67-8H618l.53-2.66,2.49-.17,1.31-4.42h3l-.85,4.42h3.93l-.56,2.83h-4l-1.67,8.19a6.44,6.44,0,0,0-.09,1.15c0,1.21.53,1.81,1.9,1.81a3.36,3.36,0,0,0,1.52-.44l.7,2.54a8.87,8.87,0,0,1-3.49.74C619.62,198.65,618.41,196.92,618.41,194.64Z" transform="translate(-16.48 -22.11)"/><path class="cls-1" d="M644.68,198.25h-2.93l.16-2.36h-.13c-1.65,1.5-3.53,2.76-5.51,2.76-2.74,0-3.89-1.53-3.89-4.16a10.67,10.67,0,0,1,.26-2.3l2.08-10.36h3.58l-2,9.91a8.56,8.56,0,0,0-.27,1.73,1.83,1.83,0,0,0,2.05,2.1c1.11,0,2.39-.79,4-2.54l2.2-11.2h3.59Z" transform="translate(-16.48 -22.11)"/><path class="cls-1" d="M656.09,181.83H659l-.3,3.17h.14c1.29-2,3.1-3.58,5-3.58a3.7,3.7,0,0,1,1.65.31l-1.21,3.15a3.23,3.23,0,0,0-1.52-.27c-1.54,0-3.12,1.22-4.47,3.72l-1.94,9.92h-3.58Z" transform="translate(-16.48 -22.11)"/><path class="cls-1" d="M677.29,181.42c3.81,0,5.23,2.67,5.23,6.06a10,10,0,0,1-.72,3.48h-10c-.35,3.46,1.56,4.93,4.06,4.93a6.19,6.19,0,0,0,3.35-1.28l1.31,2.3a9.68,9.68,0,0,1-5.6,1.74c-3.92,0-6.58-2.56-6.58-7C668.35,185.57,673,181.42,677.29,181.42Zm2.09,7.27a7,7,0,0,0,.16-1.45c0-1.59-.68-3-2.68-3s-3.94,1.66-4.73,4.47Z" transform="translate(-16.48 -22.11)"/><path class="cls-1" d="M697.89,192c0-6.27,4.53-10.54,9-10.54,3.69,0,6.13,2.6,6.13,6.69,0,6.27-4.54,10.54-9,10.54C700.32,198.65,697.89,196.05,697.89,192Zm11.54-3.73c0-2.47-1-3.89-2.89-3.89-2.6,0-5,3.3-5,7.5,0,2.48,1,3.89,2.89,3.89C707,195.73,709.43,192.43,709.43,188.23Z" transform="translate(-16.48 -22.11)"/><path class="cls-1" d="M720.09,182l2.18-.17.36-1.89c.67-3.34,2.51-5.71,5.79-5.71a6.36,6.36,0,0,1,3.22.86l-1.19,2.54a3.29,3.29,0,0,0-1.7-.52c-1.35,0-2.18.85-2.54,2.71l-.4,2h3.09l-.56,2.83h-3.13l-2.69,13.59h-3.58l2.73-13.59h-2.12Z" transform="translate(-16.48 -22.11)"/><path class="cls-1" d="M741.3,194.67l2.6-2a6.35,6.35,0,0,0,5.25,2.92c2.25,0,3.9-1.27,3.9-3.31,0-1.38-1-2.18-2.63-3.14l-2.31-1.4c-1.92-1.19-3.31-2.74-3.31-5.3,0-3.53,3.14-6.44,7.25-6.44a8.23,8.23,0,0,1,6.41,3.21l-2.3,2.12a5.75,5.75,0,0,0-4.31-2.21,3.09,3.09,0,0,0-3.36,2.94c0,1.4,1.12,2.12,2.78,3.13l2.35,1.41c2.1,1.24,3.16,2.68,3.16,5.17,0,3.94-3.2,6.9-7.93,6.9A8.92,8.92,0,0,1,741.3,194.67Z" transform="translate(-16.48 -22.11)"/><path class="cls-1" d="M771.73,181.42c3.81,0,5.23,2.67,5.23,6.06a10,10,0,0,1-.72,3.48h-10c-.35,3.46,1.56,4.93,4.06,4.93a6.22,6.22,0,0,0,3.35-1.28l1.31,2.3a9.71,9.71,0,0,1-5.61,1.74c-3.92,0-6.58-2.56-6.58-7C762.78,185.57,767.41,181.42,771.73,181.42Zm2.09,7.27a7,7,0,0,0,.16-1.45c0-1.59-.69-3-2.68-3s-3.94,1.66-4.73,4.47Z" transform="translate(-16.48 -22.11)"/><path class="cls-1" d="M782.68,196a8.14,8.14,0,0,1,.22-1.71l3.91-19.62h3.59l-4,19.77a2.64,2.64,0,0,0-.07.64c0,.49.26.69.59.69a1.62,1.62,0,0,0,.58-.09l-.07,2.69a6.08,6.08,0,0,1-2,.32A2.43,2.43,0,0,1,782.68,196Z" transform="translate(-16.48 -22.11)"/><path class="cls-1" d="M794.78,196a8.14,8.14,0,0,1,.22-1.71l3.91-19.62h3.59l-4,19.77a2.64,2.64,0,0,0-.07.64c0,.49.26.69.59.69a1.6,1.6,0,0,0,.58-.09l-.07,2.69a6,6,0,0,1-2,.32A2.43,2.43,0,0,1,794.78,196Z" transform="translate(-16.48 -22.11)"/><path class="cls-1" d="M809.57,181.83h3.59l-3.29,16.42h-3.59Zm.6-4.78a2.39,2.39,0,0,1,2.41-2.34,1.92,1.92,0,0,1,2.06,1.89,2.33,2.33,0,0,1-2.41,2.31A1.9,1.9,0,0,1,810.17,177.05Z" transform="translate(-16.48 -22.11)"/><path class="cls-1" d="M821.27,181.83h2.92l-.16,2.32h.14c1.72-1.49,3.57-2.73,5.63-2.73,2.74,0,3.89,1.53,3.89,4.16a10.57,10.57,0,0,1-.27,2.3l-2.07,10.37h-3.58l2-9.91a8.42,8.42,0,0,0,.26-1.74,1.83,1.83,0,0,0-2-2.1c-1.15,0-2.44.79-4.17,2.54l-2.21,11.21H818Z" transform="translate(-16.48 -22.11)"/><path class="cls-1" d="M838.39,203.26l1.6-2.42a7.08,7.08,0,0,0,4.42,1.83c2.47,0,4-1.54,4.69-4.14l.84-3.2a7.61,7.61,0,0,1-5.36,2.57c-2.78,0-4.77-1.93-4.77-5.76,0-5.95,4.15-10.72,8.61-10.72a4.17,4.17,0,0,1,3.73,2.32h.09l.68-1.91h2.93l-3.34,16.66c-.94,4.61-3.84,7.06-8.21,7.06A9.57,9.57,0,0,1,838.39,203.26Zm11.75-10.8,1.22-6.09a3.18,3.18,0,0,0-2.73-2c-2.69,0-5.12,3.37-5.12,7.28,0,2.22.92,3.29,2.38,3.29A5.52,5.52,0,0,0,850.14,192.46Z" transform="translate(-16.48 -22.11)"/><path class="cls-1" d="M860.73,196.56a2.89,2.89,0,0,1,2.77-2.86,1.94,1.94,0,0,1,2,2.11,2.82,2.82,0,0,1-2.74,2.84A1.94,1.94,0,0,1,860.73,196.56Z" transform="translate(-16.48 -22.11)"/></g></g></svg>